<svg id="visual" viewBox="0 0 900 600" width="900" height="600" xmlns="http://www.w3.org/2000/svg" xmlns:xlink="http://www.w3.org/1999/xlink" version="1.1"><rect width="900" height="600" fill="#ffffff"></rect><g><g transform="translate(233 415)"><path d="M90.2 -27.2C104.4 14.3 94.8 65.7 62 90.8C29.3 115.9 -26.5 114.6 -60.7 88.6C-94.9 62.5 -107.5 11.8 -93.8 -29.2C-80.1 -70.1 -40 -101.3 -1 -100.9C38 -100.6 76 -68.8 90.2 -27.2Z" stroke="#1d0ff7" fill="none" stroke-width="20"></path></g><g transform="translate(771 305)"><path d="M54.3 -19.4C61.2 3.4 51.2 30 31.6 44.4C12.1 58.9 -17 61.1 -35.4 47.9C-53.9 34.7 -61.7 6.1 -54 -17.9C-46.3 -42 -23.2 -61.3 0.3 -61.4C23.7 -61.5 47.5 -42.3 54.3 -19.4Z" stroke="#1d0ff7" fill="none" stroke-width="20"></path></g><g transform="translate(34 51)"><path d="M64 -19.7C73 6.9 63.5 40.7 40.4 58.1C17.2 75.5 -19.6 76.6 -43.6 59.3C-67.7 42 -78.9 6.4 -69.5 -20.8C-60.1 -48 -30 -66.8 -1.3 -66.4C27.5 -65.9 55 -46.4 64 -19.7Z" stroke="#1d0ff7" fill="none" stroke-width="20"></path></g></g></svg>